# xmcd
#
# Track frame offsets:
#	150
#	14488
#	27688
#	42667
#	60077
#	69940
#	81010
#	98641
#	113367
#	129854
#	143581
#	156465
#	169498
#	181553
#	202333
#	222739
#	238268
#	257737
#	274755
#	289796
#	301730
#	316756
#	337528
#
# Disc length: 4680 seconds
#
# Revision: 0
# Processed by: cddbd v1.5.2PL0 Copyright (c) Steve Scherf et al.
# Submitted via: audiograbber 1.83.01
#
DISCID=42124617
DTITLE=Johnny Cash - mix
DYEAR=1900
DGENRE=
TTITLE0=Desperado
TTITLE1=In My Life
TTITLE2=Personal Jesus
TTITLE3=I Hung My Head
TTITLE4=I Won't Back Down
TTITLE5=Solitary Man - (featuring Tom
TTITLE6=One
TTITLE7=Nobody
TTITLE8=Hurt
TTITLE9=Heart of Gold
TTITLE10=Father and Son
TTITLE11=Help Me
TTITLE12=God's Gonna Cut You Down
TTITLE13=Like the 309
TTITLE14=If You Could Read My Mind
TTITLE15=Further on Up the Road
TTITLE16=On the Evening Train
TTITLE17=I Came to Believe
TTITLE18=Love's Been Good to Me
TTITLE19=A Legend in My Time
TTITLE20=Rose of My Heart
TTITLE21=Four Strong Winds
TTITLE22=I'm Free from the Chain Gang N
EXTD=
EXTT0=
EXTT1=
EXTT2=
EXTT3=
EXTT4=
EXTT5=
EXTT6=
EXTT7=
EXTT8=
EXTT9=
EXTT10=
EXTT11=
EXTT12=
EXTT13=
EXTT14=
EXTT15=
EXTT16=
EXTT17=
EXTT18=
EXTT19=
EXTT20=
EXTT21=
EXTT22=
PLAYORDER=
